<?xml version="1.0" encoding="UTF-8" standalone="no"?>
<!-- Created with Inkscape (http://www.inkscape.org/) -->

<svg
   xmlns:dc="http://purl.org/dc/elements/1.1/"
   xmlns:cc="http://creativecommons.org/ns#"
   xmlns:rdf="http://www.w3.org/1999/02/22-rdf-syntax-ns#"
   xmlns:svg="http://www.w3.org/2000/svg"
   xmlns="http://www.w3.org/2000/svg"
   xmlns:sodipodi="http://sodipodi.sourceforge.net/DTD/sodipodi-0.dtd"
   xmlns:inkscape="http://www.inkscape.org/namespaces/inkscape"
   width="518.07013"
   height="1639.3909"
   id="svg3986"
   version="1.1"
   inkscape:version="0.48.0 r9654"
   sodipodi:docname="New document 7">
  <defs
     id="defs3988" />
  <sodipodi:namedview
     id="base"
     pagecolor="#ffffff"
     bordercolor="#666666"
     borderopacity="1.0"
     inkscape:pageopacity="0.0"
     inkscape:pageshadow="2"
     inkscape:zoom="0.35"
     inkscape:cx="508.32078"
     inkscape:cy="525.40969"
     inkscape:document-units="px"
     inkscape:current-layer="layer1"
     showgrid="false"
     fit-margin-top="0"
     fit-margin-left="0"
     fit-margin-right="0"
     fit-margin-bottom="0"
     inkscape:window-width="1216"
     inkscape:window-height="1002"
     inkscape:window-x="-8"
     inkscape:window-y="-8"
     inkscape:window-maximized="1" />
  <metadata
     id="metadata3991">
    <rdf:RDF>
      <cc:Work
         rdf:about="">
        <dc:format>image/svg+xml</dc:format>
        <dc:type
           rdf:resource="http://purl.org/dc/dcmitype/StillImage" />
        <dc:title></dc:title>
      </cc:Work>
    </rdf:RDF>
  </metadata>
  <g
     inkscape:label="Layer 1"
     inkscape:groupmode="layer"
     id="layer1"
     transform="translate(133.32078,581.61896)">
    <path
       style="fill:#292b2c;fill-opacity:1"
       d="M 146.98132,1053.437 C 101.00505,1041.5233 32.559146,988.51817 7.4382986,945.37355 -18.71043,900.46349 -33.848179,826.50754 -25.693305,783.50733 -9.8945847,700.20091 47.913,620.88664 134.5626,563.62992 c 25.46,-16.82358 41.35113,-32.40972 41.35113,-40.55755 0,-18.43016 -87.078358,-90.51618 -135.91886,-112.51757 -57.511367,-25.90745 -137.034026,-52.63805 -156.59649,-52.63805 -9.19556,0 -16.71916,-3.17454 -16.71916,-7.0545 0,-7.7702 14.33244,-11.50022 68.319257,-17.77991 C 63.155458,318.1753 107.50336,309.64078 105.35741,300.29795 102.69009,288.68468 68.583243,244.80797 47.259005,225.55725 17.098642,198.32958 27.729909,190.1842 105.33116,181.06365 178.06507,172.51526 177.35246,165.33368 96.933146,96.425084 12.672201,24.224717 -46.188363,-59.583954 -75.492916,-149.08405 c -20.486429,-62.56829 -23.052356,-78.56132 -19.743043,-123.05312 8.465619,-113.81406 75.952726,-207.37577 202.830429,-281.19696 74.44095,-43.31197 78.46676,-36.04625 8.90035,16.06329 -52.757642,39.51874 -95.474581,88.41059 -114.5930421,131.1578 -10.4487472,23.3626 -14.0392479,49.81733 -15.1311329,111.48754 l -1.431684,80.85656 36.77755,75.87508 C 55.811785,-68.377578 64.288407,-57.071747 123.26195,-2.9900075 185.22234,53.830831 273.06465,114.66827 314.35012,129.35295 c 46.62416,16.5836 4.46017,41.8244 -106.07464,63.49988 -52.24625,10.2453 -69.91066,18.84029 -66.95524,32.57843 1.22744,5.70574 24.68706,27.33159 52.13241,48.05742 57.01328,43.05458 65.02613,55.70486 35.19873,55.56988 -11.20673,-0.0503 -44.64721,5.12257 -74.31215,11.49611 -29.66494,6.37347 -61.217651,12.94902 -70.117134,14.61213 -36.155054,6.75684 -13.946549,25.1532 94.318474,78.12839 60.77458,29.73772 113.66994,54.06858 117.54515,54.06858 3.87522,0 12.48395,6.00907 19.13055,13.35346 11.58975,12.80649 10.41674,13.68845 -28.63577,21.53136 -97.54034,19.58885 -191.100037,89.40402 -218.126992,162.7684 -23.455727,63.67038 -21.685755,137.30934 4.546467,189.15646 38.558315,76.20906 105.871765,103.13799 192.285415,76.92432 39.27897,-11.91531 58.12609,-26.14398 73.17337,-55.24223 14.26816,-27.59156 12.51437,-44.09533 -6.59338,-62.04618 -27.06953,-25.43052 -55.27064,-16.23273 -55.27064,18.0265 0,36.98294 -66.56971,22.4999 -76.38798,-16.61913 -5.82324,-23.20165 12.61864,-49.52707 46.97345,-67.05355 40.48815,-20.6555 81.99677,-7.92072 111.6351,34.24945 26.55527,37.7835 34.27901,107.66403 15.84087,143.31956 -38.9742,75.36761 -149.92136,127.85271 -227.67486,107.70481 z"
       id="path3945"
       inkscape:connector-curvature="0"
       inkscape:export-xdpi="300"
       inkscape:export-ydpi="300" />
  </g>
</svg>
